<?xml version="1.0" standalone="no"?>
<!DOCTYPE svg PUBLIC "-//W3C//DTD SVG 20010904//EN"
 "http://www.w3.org/TR/2001/REC-SVG-20010904/DTD/svg10.dtd">
<svg version="1.0" xmlns="http://www.w3.org/2000/svg"
 width="1440.000000pt" height="720.000000pt" viewBox="0 0 1440.000000 720.000000"
 preserveAspectRatio="xMidYMid meet">

<g transform="translate(0.000000,720.000000) scale(0.100000,-0.100000)"
fill="#000000" stroke="none">
<path d="M10635 7178 c-6 -13 -17 -22 -24 -20 -7 1 -10 -1 -7 -6 6 -10 -74
-79 -86 -74 -5 1 -7 -2 -5 -6 2 -8 -106 -114 -123 -120 -4 -2 -34 -27 -66 -57
-31 -30 -61 -52 -65 -49 -4 2 -11 -1 -15 -7 -5 -8 -2 -10 7 -4 8 4 1 -5 -16
-20 -16 -14 -45 -40 -63 -56 -18 -17 -38 -27 -44 -23 -7 5 -8 3 -3 -6 6 -9 4
-12 -7 -8 -8 4 -20 -2 -27 -14 -7 -11 -15 -17 -18 -14 -3 3 -14 -4 -24 -16
-11 -11 -19 -18 -19 -13 0 4 -9 -4 -21 -19 -11 -14 -26 -26 -32 -25 -24 3 -37
-1 -37 -12 0 -8 6 -7 18 2 15 13 16 12 3 -4 -8 -10 -18 -16 -24 -14 -5 1 -25
-12 -43 -31 -20 -21 -38 -31 -45 -26 -8 5 -9 3 -4 -6 6 -10 4 -12 -7 -7 -10 3
-15 0 -14 -11 0 -10 -6 -16 -16 -16 -9 1 -14 -4 -12 -10 3 -7 -4 -20 -15 -31
-18 -15 -23 -16 -37 -4 -15 12 -16 11 -9 -10 6 -20 4 -23 -9 -18 -11 4 -16 1
-17 -11 0 -9 -13 -27 -30 -40 -37 -30 -38 -17 -1 14 15 13 23 24 17 24 -19 0
-62 -45 -57 -59 3 -10 0 -12 -12 -8 -9 4 -16 2 -16 -3 0 -6 4 -10 10 -10 5 0
-1 -10 -13 -23 -12 -12 -25 -18 -29 -13 -9 14 -37 16 -45 4 -3 -7 -1 -8 5 -4
7 4 12 1 12 -6 0 -9 3 -9 10 2 8 12 10 10 10 -8 0 -13 -4 -20 -10 -17 -5 3 -7
0 -5 -7 4 -10 -21 -20 -89 -37 -52 -13 -100 -27 -107 -32 -14 -9 -21 -39 -9
-39 4 0 6 -9 3 -20 -6 -22 -23 -27 -24 -7 0 6 -4 3 -9 -9 -4 -12 -28 -31 -52
-43 -23 -11 -78 -44 -121 -71 -43 -28 -83 -50 -88 -50 -5 0 -9 -4 -9 -10 0 -5
-4 -10 -8 -10 -14 0 -97 -81 -94 -92 1 -5 -2 -7 -8 -3 -5 3 -37 -22 -71 -57
-33 -35 -65 -62 -71 -60 -6 2 -8 -4 -4 -13 3 -10 2 -14 -5 -10 -10 7 -49 -21
-49 -36 0 -4 7 -15 16 -23 18 -19 4 -22 -16 -3 -7 6 -4 -4 9 -23 18 -29 86
-148 121 -212 6 -10 15 -26 20 -35 6 -10 18 -33 27 -51 9 -18 23 -30 29 -28 8
3 11 -1 8 -8 -6 -16 71 -162 85 -159 6 2 8 -4 5 -12 -3 -8 4 -24 15 -37 12
-12 34 -47 49 -78 35 -68 52 -98 75 -129 9 -13 17 -30 17 -37 0 -8 7 -22 15
-31 8 -10 22 -27 31 -38 15 -19 15 -19 10 13 -7 41 12 43 21 2 5 -27 9 -30 44
-30 35 0 39 -2 36 -22 -2 -13 -2 -17 0 -10 3 6 9 12 14 12 12 0 12 -1 -7 -46
l-16 -38 -14 24 c-13 24 -13 24 -14 3 0 -12 -3 -23 -7 -26 -5 -2 -2 -2 5 -1 8
2 12 -8 12 -28 0 -36 36 -118 53 -118 5 0 7 -3 4 -6 -4 -4 3 -20 14 -35 11
-16 17 -34 13 -41 -5 -8 -2 -9 9 -5 12 5 17 1 17 -13 0 -10 4 -22 10 -25 12
-7 33 -85 26 -93 -4 -3 -13 3 -22 14 -14 18 -15 17 -9 -18 5 -32 3 -37 -17
-44 -13 -4 -27 -7 -31 -6 -4 1 -13 -12 -20 -30 l-12 -33 -7 45 c-5 32 -6 23
-4 -33 2 -45 0 -73 -5 -65 -5 8 -9 -10 -11 -47 l-1 -60 -7 60 c-7 63 -9 64
-15 1 -3 -22 -11 -44 -20 -48 -11 -7 -15 -26 -15 -69 0 -48 -4 -61 -17 -66
-10 -4 -36 -19 -58 -34 -22 -14 -70 -41 -108 -59 -37 -18 -70 -36 -73 -41 -3
-5 -14 -9 -24 -9 -10 0 -20 -4 -22 -8 -3 -7 -83 -52 -92 -52 -2 0 -2 10 1 23
3 15 -1 11 -13 -11 -10 -19 -31 -39 -53 -48 -20 -9 -45 -21 -56 -27 -11 -6
-40 -22 -65 -35 -25 -13 -53 -32 -63 -43 -10 -10 -25 -19 -33 -19 -9 0 -22 -7
-30 -15 -14 -13 -14 -17 0 -31 9 -8 13 -21 9 -27 -4 -7 0 -8 11 -4 11 4 15 3
11 -4 -4 -6 0 -9 11 -7 13 2 19 -4 20 -20 1 -12 -3 -25 -7 -28 -5 -3 -9 -10
-9 -15 0 -6 5 -7 11 -3 8 4 9 -1 4 -16 -5 -15 -4 -20 4 -16 6 4 11 1 11 -6 0
-7 15 -23 33 -35 17 -13 26 -23 20 -23 -7 0 -15 5 -18 10 -10 16 -25 12 -19
-5 4 -8 15 -15 25 -15 10 0 19 -3 20 -7 0 -5 2 -19 5 -33 3 -19 2 -21 -6 -10
-12 18 -13 0 -1 -19 7 -11 11 -10 20 5 10 17 11 16 11 -11 0 -54 3 -63 18 -58
11 5 13 1 7 -18 -5 -19 -4 -21 5 -9 10 12 11 11 7 -7 -3 -13 -1 -23 4 -23 5 0
9 7 9 15 0 9 6 12 16 8 12 -4 13 -7 3 -14 -23 -14 -6 -18 119 -30 l122 -12 0
-184 c0 -151 3 -187 15 -199 8 -9 15 -27 16 -42 l1 -27 8 25 8 25 1 -28 c1
-21 6 -27 18 -25 10 2 18 -3 18 -12 0 -8 10 -16 22 -18 15 -2 20 -8 16 -18 -6
-16 8 -15 136 7 82 14 89 12 86 -15 -4 -29 22 -69 37 -60 7 4 8 2 4 -5 -7 -10
88 -141 103 -141 3 0 19 -18 35 -40 16 -21 33 -37 37 -34 4 2 10 0 14 -6 4 -6
11 -7 17 -4 7 4 8 2 4 -5 -4 -6 -12 -9 -17 -6 -5 3 -6 -1 -3 -9 3 -9 10 -13
15 -10 5 3 9 -1 9 -9 0 -7 11 -19 24 -27 21 -11 35 -10 93 5 37 9 82 24 100
31 36 16 73 18 73 4 0 -5 -10 -10 -22 -10 -21 -1 -21 -2 -6 -11 17 -9 17 -12
2 -40 -15 -29 -15 -31 4 -25 12 4 25 -1 37 -14 11 -12 13 -20 6 -20 -7 0 -9
-4 -6 -10 3 -5 13 -10 21 -10 8 0 29 -13 46 -29 28 -26 37 -29 106 -29 41 -1
77 -3 79 -6 5 -5 5 -176 0 -209 -2 -12 -2 -16 0 -9 3 6 9 12 15 12 7 0 9 -27
6 -82 -3 -46 -3 -71 -1 -55 3 20 10 27 26 26 17 -1 18 -2 5 -6 -22 -5 -24 -23
-3 -23 8 0 15 -7 15 -16 0 -10 -6 -14 -14 -11 -9 4 -14 0 -14 -11 0 -9 -3 -26
-8 -37 -7 -17 -6 -18 8 -8 8 7 18 9 23 5 4 -4 6 0 3 8 -5 16 39 57 49 46 4 -3
1 -6 -6 -6 -8 0 -11 -6 -7 -16 4 -11 2 -15 -8 -11 -10 4 -13 1 -10 -8 3 -8 -1
-24 -9 -36 -13 -18 -14 -24 -2 -35 7 -8 18 -14 24 -14 6 0 11 -4 11 -10 0 -14
-63 -23 -102 -15 l-33 7 25 -28 c14 -15 62 -66 107 -113 104 -109 134 -148
110 -138 -11 4 -16 3 -12 -3 3 -6 1 -10 -4 -10 -6 0 -11 -14 -11 -31 0 -19 -4
-28 -11 -24 -6 4 -9 0 -7 -11 2 -15 -2 -18 -22 -16 -24 4 -25 3 -5 -12 20 -16
20 -16 -3 -22 -14 -4 -19 -10 -13 -13 7 -5 -3 -22 -25 -47 -20 -21 -36 -41
-35 -44 0 -3 -3 -5 -8 -5 -5 0 -13 -4 -18 -9 -5 -5 -3 -6 5 -2 6 4 12 5 12 2
0 -12 -73 -101 -81 -99 -5 2 -6 -3 -3 -11 3 -8 -5 -21 -18 -30 -12 -9 -19 -16
-14 -16 9 0 -8 -17 -71 -69 -22 -18 -34 -38 -36 -58 -2 -18 -8 -38 -14 -45 -5
-7 -13 -21 -17 -32 -5 -14 -2 -17 9 -12 25 9 17 -10 -10 -24 -14 -8 -23 -20
-21 -27 3 -7 1 -13 -5 -13 -6 0 -9 -6 -6 -14 3 -8 1 -16 -4 -18 -6 -2 -12 -16
-12 -31 -1 -15 -5 -27 -9 -27 -5 0 -8 -7 -8 -15 0 -9 -7 -27 -16 -40 -9 -13
-13 -29 -9 -35 3 -5 2 -10 -2 -10 -5 0 -19 -28 -33 -61 -13 -34 -31 -71 -41
-83 -9 -11 -20 -36 -23 -54 -4 -17 -12 -32 -17 -32 -6 0 -7 -4 -4 -10 3 -5 1
-10 -4 -10 -6 0 -11 -6 -11 -14 0 -7 -9 -25 -21 -40 l-20 -26 2330 0 2331 0 0
3600 0 3600 -1878 0 -1877 0 -10 -22z m-1705 -1381 c0 -2 -10 -12 -22 -23
l-23 -19 19 23 c18 21 26 27 26 19z m350 -817 c0 -11 -7 -20 -15 -20 -18 0
-19 12 -3 28 16 16 18 15 18 -8z m-101 -60 c11 -39 13 -40 56 -40 26 0 45 -5
45 -11 0 -14 -80 -2 -96 14 -15 16 -35 77 -25 77 4 0 13 -18 20 -40z m101 0
c0 -11 -4 -20 -10 -20 -5 0 -10 9 -10 20 0 11 5 20 10 20 6 0 10 -9 10 -20z
m80 -115 c0 -22 -4 -25 -40 -25 -36 0 -40 3 -40 25 0 23 4 25 40 25 36 0 40
-2 40 -25z m-13 -212 c-3 -10 -5 -4 -5 12 0 17 2 24 5 18 2 -7 2 -21 0 -30z
m163 -2209 c0 -8 -19 -13 -24 -6 -3 5 1 9 9 9 8 0 15 -2 15 -3z m744 -577 c7
-6 6 -7 -4 -4 -8 2 -16 12 -17 23 -2 13 -1 15 4 4 3 -8 11 -19 17 -23z m46
-147 c0 -5 -5 -10 -11 -10 -5 0 -7 5 -4 10 3 6 8 10 11 10 2 0 4 -4 4 -10z"/>
<path d="M9765 6469 c-4 -6 -5 -12 -2 -15 2 -3 7 2 10 11 7 17 1 20 -8 4z"/>
<path d="M9271 4704 c0 -11 3 -14 6 -6 3 7 2 16 -1 19 -3 4 -6 -2 -5 -13z"/>
<path d="M9290 4710 c0 -5 5 -10 10 -10 6 0 10 5 10 10 0 6 -4 10 -10 10 -5 0
-10 -4 -10 -10z"/>
<path d="M9290 4675 c0 -8 5 -15 10 -15 6 0 10 7 10 15 0 8 -4 15 -10 15 -5 0
-10 -7 -10 -15z"/>
<path d="M9339 4463 c-5 -15 -8 -38 -6 -52 4 -26 4 -26 6 2 0 17 7 27 16 27 8
0 15 5 15 11 0 5 -5 7 -12 3 -8 -5 -9 0 -6 14 8 31 0 27 -13 -5z"/>
<path d="M9365 4414 c-22 -33 -16 -37 14 -9 13 13 19 25 13 29 -5 3 -17 -6
-27 -20z"/>
<path d="M9376 4305 c-3 -8 -1 -15 3 -15 5 0 11 7 15 15 3 8 1 15 -3 15 -5 0
-11 -7 -15 -15z"/>
<path d="M9309 4185 c-4 -22 -2 -44 2 -49 6 -6 9 -2 10 10 0 18 1 18 9 -1 7
-16 9 -11 9 20 0 30 -2 35 -9 20 -7 -18 -8 -16 -12 10 -3 28 -4 28 -9 -10z"/>
<path d="M8938 3743 c-30 -8 -20 -20 12 -15 17 2 30 8 30 13 0 9 -13 10 -42 2z"/>
<path d="M8757 3653 c3 -8 12 -12 20 -9 8 3 21 6 29 6 31 0 12 15 -20 16 -25
0 -33 -3 -29 -13z"/>
<path d="M8620 3409 c0 -5 -4 -8 -9 -4 -12 7 -24 -12 -16 -25 9 -15 31 -1 32
20 1 11 0 20 -3 20 -2 0 -4 -5 -4 -11z"/>
<path d="M100 3350 c-8 -5 -12 -11 -9 -14 2 -3 11 -1 19 4 8 5 12 11 9 14 -2
3 -11 1 -19 -4z"/>
<path d="M231 3264 c0 -11 3 -14 6 -6 3 7 2 16 -1 19 -3 4 -6 -2 -5 -13z"/>
<path d="M8685 3230 c3 -5 11 -10 16 -10 6 0 7 5 4 10 -3 6 -11 10 -16 10 -6
0 -7 -4 -4 -10z"/>
<path d="M356 3075 c4 -8 10 -15 15 -15 5 0 9 7 9 15 0 8 -7 15 -15 15 -9 0
-12 -6 -9 -15z"/>
<path d="M9145 2520 c3 -5 8 -10 11 -10 2 0 4 5 4 10 0 6 -5 10 -11 10 -5 0
-7 -4 -4 -10z"/>
<path d="M770 2443 c0 -12 5 -25 10 -28 13 -8 13 15 0 35 -8 12 -10 11 -10 -7z"/>
<path d="M9745 2140 c3 -5 8 -10 11 -10 2 0 4 5 4 10 0 6 -5 10 -11 10 -5 0
-7 -4 -4 -10z"/>
<path d="M9877 2093 c-13 -13 -7 -21 13 -16 11 3 17 9 14 14 -6 11 -18 12 -27
2z"/>
<path d="M1012 2068 c9 -7 18 -22 21 -33 4 -16 5 -14 6 6 1 16 -5 29 -15 33
-25 9 -29 7 -12 -6z"/>
<path d="M1080 1973 c0 -5 7 -17 15 -27 8 -10 12 -22 10 -27 -3 -4 -1 -10 5
-14 16 -10 12 44 -4 61 -16 15 -26 18 -26 7z"/>
<path d="M10201 1734 c0 -11 3 -14 6 -6 3 7 2 16 -1 19 -3 4 -6 -2 -5 -13z"/>
<path d="M10195 1690 c-3 -5 -1 -10 4 -10 6 0 11 5 11 10 0 6 -2 10 -4 10 -3
0 -8 -4 -11 -10z"/>
<path d="M1270 1664 c0 -8 5 -12 10 -9 6 3 10 10 10 16 0 5 -4 9 -10 9 -5 0
-10 -7 -10 -16z"/>
<path d="M1300 1629 c0 -12 8 -29 18 -38 10 -9 23 -27 29 -41 l12 -25 0 24 c1
13 -8 32 -20 42 -14 12 -19 24 -14 38 5 15 2 21 -9 21 -10 0 -16 -9 -16 -21z"/>
<path d="M1425 1430 c3 -5 8 -10 11 -10 2 0 4 5 4 10 0 6 -5 10 -11 10 -5 0
-7 -4 -4 -10z"/>
<path d="M1485 1330 c3 -5 8 -10 11 -10 2 0 4 5 4 10 0 6 -5 10 -11 10 -5 0
-7 -4 -4 -10z"/>
<path d="M1510 1291 c0 -10 19 -25 25 -20 1 2 -3 10 -11 17 -8 7 -14 8 -14 3z"/>
<path d="M10341 1134 c0 -11 3 -14 6 -6 3 7 2 16 -1 19 -3 4 -6 -2 -5 -13z"/>
<path d="M10263 1025 c0 -8 4 -12 9 -9 5 3 6 10 3 15 -9 13 -12 11 -12 -6z"/>
</g>
</svg>
